<svg width="10" height="9" viewBox="0 0 10 9" fill="none" xmlns="http://www.w3.org/2000/svg">
<path d="M1.79984 6.30075C1.79984 6.61916 1.92633 6.92452 2.15148 7.14967C2.37662 7.37482 2.68199 7.50131 3.0004 7.50131C3.0004 7.76665 3.10581 8.02112 3.29343 8.20874C3.48105 8.39637 3.73553 8.50177 4.00087 8.50177C4.26621 8.50177 4.52068 8.39637 4.7083 8.20874C4.89593 8.02112 5.00133 7.76665 5.00133 7.50131C5.00133 7.76665 5.10674 8.02112 5.29436 8.20874C5.48198 8.39637 5.73646 8.50177 6.0018 8.50177C6.26714 8.50177 6.52161 8.39637 6.70923 8.20874C6.89686 8.02112 7.00226 7.76665 7.00226 7.50131C7.2151 7.50133 7.42412 7.44476 7.60791 7.33741C7.79169 7.23006 7.94363 7.07578 8.04816 6.89037C8.15269 6.70497 8.20605 6.49511 8.20278 6.2823C8.19951 6.06948 8.13972 5.86136 8.02954 5.67926C8.30345 5.62633 8.55039 5.4797 8.72797 5.26453C8.90554 5.04936 9.00266 4.77909 9.00266 4.50011C9.00266 4.22113 8.90554 3.95086 8.72797 3.73569C8.55039 3.52052 8.30345 3.37389 8.02954 3.32096C8.13982 3.13885 8.1997 2.93069 8.20302 2.71782C8.20634 2.50494 8.153 2.29501 8.04846 2.10955C7.94391 1.92408 7.79193 1.76975 7.60809 1.66238C7.42425 1.55501 7.21516 1.49845 7.00226 1.49851C7.00226 1.23317 6.89686 0.9787 6.70923 0.791077C6.52161 0.603453 6.26714 0.498047 6.0018 0.498047C5.73646 0.498047 5.48198 0.603453 5.29436 0.791077C5.10674 0.9787 5.00133 1.23317 5.00133 1.49851C5.00133 1.23317 4.89593 0.9787 4.7083 0.791077C4.52068 0.603453 4.26621 0.498047 4.00087 0.498047C3.73553 0.498047 3.48105 0.603453 3.29343 0.791077C3.10581 0.9787 3.0004 1.23317 3.0004 1.49851C2.78756 1.49849 2.57854 1.55506 2.39476 1.66241C2.21097 1.76977 2.05903 1.92405 1.9545 2.10945C1.84997 2.29485 1.79661 2.50471 1.79988 2.71753C1.80315 2.93034 1.86294 3.13846 1.97312 3.32056C1.69921 3.37349 1.45227 3.52012 1.2747 3.73529C1.09712 3.95046 1 4.22073 1 4.49971C1 4.77869 1.09712 5.04896 1.2747 5.26413C1.45227 5.4793 1.69921 5.62593 1.97312 5.67886C1.85966 5.86645 1.79974 6.08152 1.79984 6.30075Z" stroke="#E31F52" stroke-width="0.5" stroke-linecap="round" stroke-linejoin="round"/>
<path d="M3.2002 5.50073L3.93734 3.2893C3.95584 3.23411 3.99122 3.18613 4.03847 3.15214C4.08572 3.11814 4.14245 3.09986 4.20066 3.09986C4.25887 3.09986 4.3156 3.11814 4.36285 3.15214C4.4101 3.18613 4.44548 3.23411 4.46398 3.2893L5.20113 5.50073M6.40169 3.09961V5.50073M3.60038 4.70036H4.80094" stroke="#E31F52" stroke-width="0.5" stroke-linecap="round" stroke-linejoin="round"/>
</svg>
