<svg width="8" height="9" viewBox="0 0 8 9" fill="none" xmlns="http://www.w3.org/2000/svg">
<g clip-path="url(#clip0_1810_10768)">
<path d="M1.6696 4.83333V7.83333H1.00293V4.83333H1.6696ZM7.6696 4.83333V5.5H7.00293V7.83333H6.33626V5.5H5.6696V4.83333H7.6696ZM4.00293 4.16667C4.46997 4.16921 4.92706 4.30183 5.32293 4.54967L5.80526 4.06633C5.2761 3.69857 4.64734 3.501 4.00293 3.5C3.36716 3.50119 2.74692 3.69657 2.22526 4.06L2.70826 4.54433C3.09606 4.29997 3.54457 4.16914 4.00293 4.16667Z" fill="#E31F52"/>
<path d="M4.00308 2.83268C4.82384 2.83453 5.62233 3.09976 6.28108 3.58935L6.75675 3.11268C5.96939 2.50022 5.0006 2.16717 4.00308 2.16602C3.01419 2.16719 2.05395 2.49822 1.27441 3.10668L1.74975 3.58335C2.4007 3.09752 3.19083 2.8343 4.00308 2.83268Z" fill="#E31F52"/>
<path d="M4.00324 1.50064C5.17761 1.5008 6.31674 1.90179 7.23224 2.63731L7.70791 2.16098C6.66851 1.3041 5.36366 0.83502 4.01659 0.833986C2.66952 0.832952 1.36396 1.30003 0.323242 2.15531L0.798909 2.63164C1.70673 1.90015 2.83739 1.50107 4.00324 1.50064ZM4.00324 4.83398C3.70657 4.83398 3.41656 4.92195 3.16989 5.08677C2.92321 5.2516 2.73095 5.48586 2.61742 5.75995C2.50389 6.03404 2.47419 6.33564 2.53206 6.62661C2.58994 6.91759 2.7328 7.18486 2.94258 7.39464C3.15236 7.60442 3.41963 7.74728 3.71061 7.80516C4.00158 7.86303 4.30318 7.83333 4.57727 7.7198C4.85136 7.60627 5.08562 7.41401 5.25045 7.16733C5.41527 6.92066 5.50324 6.63065 5.50324 6.33398C5.50324 5.93615 5.34521 5.55462 5.0639 5.27332C4.7826 4.99201 4.40107 4.83398 4.00324 4.83398ZM4.00324 7.16731C3.83842 7.16731 3.67731 7.11844 3.54027 7.02687C3.40323 6.9353 3.29642 6.80515 3.23334 6.65288C3.17027 6.50061 3.15377 6.33305 3.18592 6.1714C3.21808 6.00975 3.29744 5.86127 3.41399 5.74472C3.53053 5.62818 3.67902 5.54881 3.84067 5.51666C4.00232 5.4845 4.16987 5.50101 4.32214 5.56408C4.47442 5.62715 4.60457 5.73396 4.69613 5.871C4.7877 6.00804 4.83658 6.16916 4.83658 6.33398C4.83658 6.55499 4.74878 6.76695 4.5925 6.92323C4.43622 7.07951 4.22426 7.16731 4.00324 7.16731Z" fill="#E31F52"/>
</g>
<defs>
<clipPath id="clip0_1810_10768">
<rect width="8" height="8" fill="white" transform="translate(0.00292969 0.5)"/>
</clipPath>
</defs>
</svg>
