<svg width="10" height="10" viewBox="0 0 10 10" fill="none" xmlns="http://www.w3.org/2000/svg">
<path d="M3.75 9H2C1.73478 9 1.48043 8.90635 1.29289 8.73965C1.10536 8.57295 1 8.34686 1 8.11111V1.88889C1 1.65314 1.10536 1.42705 1.29289 1.26035C1.48043 1.09365 1.73478 1 2 1H6C6.26522 1 6.51957 1.09365 6.70711 1.26035C6.89464 1.42705 7 1.65314 7 1.88889V5.44444M8 9L9 8.11111L8 7.22222M6.5 7.22222L5.5 8.11111L6.5 9M3.5 1.44444H4.5M4 7.22222V7.22667" stroke="#E31F52" stroke-width="0.8" stroke-linecap="round" stroke-linejoin="round"/>
</svg>
