<svg width="10" height="11" viewBox="0 0 10 11" fill="none" xmlns="http://www.w3.org/2000/svg">
<g clip-path="url(#clip0_1810_10837)">
<path d="M10.0029 5.5V4.78571H9.28864V3.35714C9.28817 2.97841 9.13751 2.61532 8.8697 2.34751C8.6019 2.07971 8.23881 1.92904 7.86007 1.92857H7.14579V0.5H6.4315V1.92857H3.57436V0.5H2.86007V1.92857H2.14579C1.76705 1.92904 1.40396 2.07971 1.13616 2.34751C0.868349 2.61532 0.717688 2.97841 0.717215 3.35714V4.78571H0.00292969V5.5H0.717215V7.28571H0.00292969V8H0.717215V9.07143C0.717688 9.45016 0.868349 9.81325 1.13616 10.0811C1.40396 10.3489 1.76705 10.4995 2.14579 10.5H7.86007C8.23881 10.4995 8.6019 10.3489 8.8697 10.0811C9.13751 9.81325 9.28817 9.45016 9.28864 9.07143V8H10.0029V7.28571H9.28864V5.5H10.0029ZM8.57436 9.07143C8.57436 9.26087 8.4991 9.44255 8.36515 9.5765C8.23119 9.71046 8.04951 9.78571 7.86007 9.78571H2.14579C1.95635 9.78571 1.77467 9.71046 1.64071 9.5765C1.50676 9.44255 1.4315 9.26087 1.4315 9.07143V3.35714C1.4315 3.1677 1.50676 2.98602 1.64071 2.85207C1.77467 2.71811 1.95635 2.64286 2.14579 2.64286H7.86007C8.04951 2.64286 8.23119 2.71811 8.36515 2.85207C8.4991 2.98602 8.57436 3.1677 8.57436 3.35714V9.07143Z" fill="#E31F52"/>
<path d="M7.38876 7.07117H7.05481L6.88975 6.60414H6.1681L6.00943 7.07117H5.67676L6.36386 5.23633H6.70678L7.38876 7.07117ZM6.80914 6.35591L6.55451 5.62402C6.54684 5.60014 6.53873 5.56175 6.5302 5.50887H6.52508C6.51741 5.55749 6.50888 5.59587 6.49949 5.62402L6.24743 6.35591H6.80914Z" fill="#E31F52"/>
<path d="M4.70169 6.40582V7.07117H4.39844V5.23633H4.95503C5.16573 5.23633 5.32908 5.28538 5.44509 5.38347C5.5611 5.48157 5.61911 5.61976 5.61911 5.79804C5.61911 5.97632 5.55854 6.12219 5.43741 6.23564C5.31628 6.34909 5.1525 6.40582 4.94607 6.40582H4.70169ZM4.70169 5.48712V6.15759H4.89873C5.02924 6.15759 5.12862 6.1273 5.19686 6.06674C5.2651 6.00618 5.29922 5.92087 5.29922 5.81084C5.29922 5.59502 5.17383 5.48712 4.92304 5.48712H4.70169Z" fill="#E31F52"/>
<path d="M4.05248 7.07117H3.69677L3.40376 6.57983C3.37732 6.53462 3.3513 6.49624 3.32571 6.46467C3.30097 6.43226 3.27538 6.40582 3.24894 6.38534C3.22335 6.36487 3.1952 6.34994 3.16449 6.34056C3.13378 6.33118 3.09923 6.32648 3.06085 6.32648H2.93801V7.07117H2.63477V5.23633H3.2387C3.32486 5.23633 3.40419 5.24656 3.47669 5.26704C3.5492 5.28751 3.61232 5.31864 3.66606 5.36044C3.7198 5.40139 3.7616 5.45299 3.79146 5.51526C3.82217 5.57668 3.83752 5.64876 3.83752 5.7315C3.83752 5.79633 3.82771 5.85605 3.80809 5.91064C3.78932 5.96438 3.76203 6.01257 3.7262 6.05522C3.69123 6.09702 3.64858 6.13285 3.59825 6.16271C3.54877 6.19256 3.4929 6.21559 3.43063 6.2318V6.23692C3.4639 6.25568 3.4929 6.27658 3.51764 6.29961C3.54238 6.32179 3.56583 6.34482 3.58801 6.36871C3.61019 6.39259 3.63194 6.41989 3.65327 6.4506C3.67545 6.48045 3.69976 6.51543 3.7262 6.55552L4.05248 7.07117ZM2.93801 5.48328V6.07954H3.19136C3.23828 6.07954 3.28135 6.07229 3.32059 6.05778C3.36068 6.04328 3.39523 6.02238 3.42423 5.99509C3.45324 5.96779 3.47584 5.93452 3.49205 5.89528C3.50826 5.85605 3.51636 5.81211 3.51636 5.76349C3.51636 5.67563 3.48864 5.60696 3.43319 5.55749C3.37774 5.50801 3.29799 5.48328 3.19392 5.48328H2.93801Z" fill="#E31F52"/>
</g>
<defs>
<clipPath id="clip0_1810_10837">
<rect width="10" height="10" fill="white" transform="translate(0.00292969 0.5)"/>
</clipPath>
</defs>
</svg>
